<svg width="50" height="50" viewBox="0 0 50 50" fill="none" xmlns="http://www.w3.org/2000/svg">
<circle cx="25" cy="25" r="25" fill="#0C8ED8"/>
<path d="M17.4067 10.8715C17.4067 10.8715 12.6318 12.6466 9.81204 19.3228L25.3679 16.3822L17.4067 10.8715Z" fill="white"/>
<path d="M9.5771 20.2749C9.5771 20.2749 7.47167 24.9141 10.223 31.6184L19.1013 18.5092L9.5771 20.2749Z" fill="white"/>
<path d="M10.8179 32.2791C10.8179 32.2791 12.593 37.0538 19.2692 39.8737L16.3299 24.3152L10.8179 32.2791Z" fill="white"/>
<path d="M20.2212 40.1074C20.2212 40.1074 24.8604 42.2114 31.5648 39.4614L18.4554 30.5858L20.2212 40.1074Z" fill="white"/>
<path d="M32.4819 39.0707C32.4819 39.0707 37.258 37.2956 40.0765 30.6167L24.5193 33.556L32.4819 39.0707Z" fill="white"/>
<path d="M39.6642 18.3225L30.7886 31.4317L40.3128 29.6647C40.3128 29.6662 42.4156 25.0268 39.6642 18.3225Z" fill="white"/>
<path d="M39.0695 17.6618C39.0695 17.6618 37.2944 12.887 30.6169 10.0685L33.5562 25.6244L39.0695 17.6618Z" fill="white"/>
<path d="M29.6647 9.83364C29.6647 9.83364 25.0282 7.7282 18.3225 10.4809L31.4332 19.3565L29.6647 9.83364Z" fill="white"/>
<path d="M25.0014 6C14.5077 6 6 14.5077 6 25C6 35.4909 14.5064 44 25.0014 44C35.4923 44 44 35.4897 44 25C44.0014 14.5077 35.4937 6 25.0014 6ZM25.0014 42.5311C15.3348 42.5311 7.46898 34.6665 7.46898 25C7.46898 15.3335 15.3348 7.46899 25.0014 7.46899C34.6651 7.46899 42.5311 15.3335 42.5311 25C42.5311 34.6665 34.6651 42.5311 25.0014 42.5311Z" fill="white"/>
</svg>
