<svg width="122" height="22" viewBox="0 0 122 22" fill="none" xmlns="http://www.w3.org/2000/svg">
<path d="M65.5046 17.1111V7.02044H69.8685V7.98844H66.5604V11.7578H69.5025V12.7111H66.5604V17.1111H65.5046ZM71.1241 7.43111V6.21378H72.1799V7.43111H71.1241ZM71.1523 17.1111V9.63111H72.1517V17.1111H71.1523ZM73.9155 17.1111V6.21378H74.9149V17.1111H73.9155ZM83.6467 12.7404C83.6467 12.0364 83.6186 11.5329 83.5623 11.2298C83.506 10.9169 83.4027 10.7116 83.2526 10.6138C83.1024 10.5062 82.849 10.4524 82.4924 10.4524C82.0795 10.4524 81.7745 10.5551 81.5774 10.7604C81.3897 10.956 81.2724 11.2347 81.2255 11.5964C81.1786 11.9582 81.1551 12.5009 81.1551 13.2244V17.1111H80.1556V12.7404C80.1556 12.0267 80.1275 11.5182 80.0712 11.2151C80.0243 10.912 79.9257 10.7116 79.7756 10.6138C79.6254 10.5062 79.372 10.4524 79.0154 10.4524C78.6025 10.4524 78.2975 10.56 78.1004 10.7751C77.9127 10.9804 77.7954 11.2689 77.7485 11.6404C77.7016 12.0022 77.6781 12.5302 77.6781 13.2244V17.1111H76.6786V9.63111H77.5514L77.6077 10.6724H77.6922C77.8048 10.3107 77.9878 10.0271 78.2412 9.82178C78.504 9.61644 78.884 9.51378 79.3814 9.51378C79.8976 9.51378 80.2776 9.60178 80.5217 9.77778C80.775 9.95378 80.9487 10.252 81.0425 10.6724H81.127C81.2396 10.3009 81.432 10.0173 81.7041 9.82178C81.9763 9.61644 82.361 9.51378 82.8584 9.51378C83.3652 9.51378 83.7453 9.61155 83.9986 9.80711C84.252 9.99289 84.421 10.2862 84.5054 10.6871C84.5993 11.088 84.6462 11.6502 84.6462 12.3738V17.1111H83.6467V12.7404Z" fill="white"/>
<path d="M59.9818 11.5524V12.4618H58.7852V16.9791C58.4662 17.0476 58.0955 17.1062 57.6732 17.1551C57.2509 17.204 56.8661 17.2284 56.5189 17.2284C55.6742 17.2284 55.0314 17.1209 54.5903 16.9058C54.1586 16.6907 53.863 16.3876 53.7035 15.9964C53.5533 15.5956 53.4782 15.0676 53.4782 14.4124C53.4782 13.64 53.5862 13.0827 53.802 12.7404C54.0179 12.3884 54.3557 12.1391 54.8155 11.9924V11.9338C54.3745 11.7871 54.0507 11.5329 53.8442 11.1711C53.6472 10.8093 53.5486 10.2716 53.5486 9.55777C53.5486 8.97111 53.6284 8.48711 53.7879 8.10577C53.9569 7.71466 54.2572 7.41644 54.6889 7.21111C55.1205 7.00577 55.7305 6.90311 56.5189 6.90311C56.8473 6.90311 57.2227 6.92755 57.645 6.97644C58.0673 7.02533 58.438 7.08888 58.7571 7.16711V8.01777C58.4474 7.95911 58.1049 7.91022 57.7295 7.87111C57.3635 7.832 57.0538 7.81244 56.8004 7.81244C56.1435 7.81244 55.6555 7.87111 55.3364 7.98844C55.0267 8.10577 54.8202 8.29644 54.717 8.56044C54.6138 8.81466 54.5622 9.196 54.5622 9.70444C54.5622 10.2813 54.6466 10.736 54.8155 11.0684C54.9939 11.3911 55.3692 11.5524 55.9417 11.5524H56.8145V12.4618H55.9417C55.5288 12.4618 55.2144 12.5351 54.9985 12.6818C54.7921 12.8284 54.656 13.0387 54.5903 13.3124C54.5246 13.5764 54.4918 13.9431 54.4918 14.4124C54.4918 14.9502 54.5622 15.356 54.7029 15.6298C54.8437 15.9036 55.0595 16.0893 55.3505 16.1871C55.6414 16.2849 56.0449 16.3338 56.5611 16.3338C57.0303 16.3338 57.4385 16.2947 57.7858 16.2164V11.5524H59.9818Z" fill="white"/>
<path d="M22.1008 7.02044H24.9725C25.6294 7.02044 26.1221 7.15733 26.4505 7.43111C26.779 7.69511 26.9902 8.04711 27.084 8.48711C27.1872 8.91733 27.2388 9.48444 27.2388 10.1884C27.2388 10.8729 27.1872 11.4351 27.084 11.8751C26.9902 12.3053 26.779 12.6573 26.4505 12.9311C26.1221 13.2049 25.6294 13.3418 24.9725 13.3418H23.1565V17.1111H22.1008V7.02044ZM24.6909 12.3884C25.1414 12.3884 25.4698 12.3102 25.6763 12.1538C25.8922 11.9973 26.0282 11.7724 26.0845 11.4791C26.1502 11.176 26.1831 10.7458 26.1831 10.1884C26.1831 9.62133 26.1502 9.19111 26.0845 8.89778C26.0282 8.59466 25.8968 8.36978 25.6904 8.22311C25.4839 8.06666 25.1555 7.98844 24.705 7.98844H23.1565V12.3884H24.6909ZM32.1917 12.7404C32.1917 12.0364 32.1588 11.5329 32.0932 11.2298C32.0368 10.9169 31.9242 10.7116 31.7553 10.6138C31.5864 10.5062 31.3095 10.4524 30.9248 10.4524C30.4931 10.4524 30.1787 10.56 29.9816 10.7751C29.7845 10.9902 29.6625 11.2787 29.6156 11.6404C29.5687 12.0022 29.5452 12.5302 29.5452 13.2244V17.1111H28.5458V6.21378H29.5452V10.5258H29.6156C29.869 9.85111 30.4415 9.51377 31.333 9.51377C31.8585 9.51377 32.2527 9.61155 32.5155 9.80711C32.7876 9.99289 32.9659 10.2862 33.0504 10.6871C33.1442 11.088 33.1912 11.6502 33.1912 12.3738V17.1111H32.1917V12.7404ZM37.1345 17.2284C36.3743 17.2284 35.8253 17.1258 35.4875 16.9204C35.159 16.7151 34.9431 16.3582 34.8399 15.8498C34.7461 15.3413 34.6991 14.5151 34.6991 13.3711C34.6991 12.2271 34.7461 11.4009 34.8399 10.8924C34.9431 10.384 35.159 10.0271 35.4875 9.82177C35.8253 9.61644 36.3743 9.51377 37.1345 9.51377C37.8946 9.51377 38.4389 9.61644 38.7674 9.82177C39.1052 10.0271 39.3211 10.384 39.4149 10.8924C39.5088 11.4009 39.5557 12.2271 39.5557 13.3711C39.5557 14.5151 39.5088 15.3413 39.4149 15.8498C39.3211 16.3582 39.1052 16.7151 38.7674 16.9204C38.4389 17.1258 37.8946 17.2284 37.1345 17.2284ZM37.1345 16.3338C37.6037 16.3338 37.9321 16.2653 38.1198 16.1284C38.3169 15.9916 38.4389 15.7373 38.4858 15.3658C38.5328 14.9942 38.5562 14.3293 38.5562 13.3711C38.5562 12.4129 38.5328 11.748 38.4858 11.3764C38.4389 11.0049 38.3169 10.7507 38.1198 10.6138C37.9321 10.4769 37.6037 10.4084 37.1345 10.4084C36.6558 10.4084 36.3227 10.4769 36.135 10.6138C35.9473 10.7507 35.8253 11.0098 35.769 11.3911C35.7221 11.7627 35.6986 12.4227 35.6986 13.3711C35.6986 14.3196 35.7221 14.9844 35.769 15.3658C35.8253 15.7373 35.9473 15.9916 36.135 16.1284C36.3227 16.2653 36.6558 16.3338 37.1345 16.3338ZM41.4782 17.1111V10.5258H40.4366V9.63111H41.4782V7.46044H42.4777V9.63111H43.7165V10.5258H42.4777V17.1111H41.4782ZM47.0323 17.2284C46.2721 17.2284 45.7231 17.1258 45.3853 16.9204C45.0568 16.7151 44.841 16.3582 44.7378 15.8498C44.6439 15.3413 44.597 14.5151 44.597 13.3711C44.597 12.2271 44.6439 11.4009 44.7378 10.8924C44.841 10.384 45.0568 10.0271 45.3853 9.82177C45.7231 9.61644 46.2721 9.51377 47.0323 9.51377C47.7924 9.51377 48.3368 9.61644 48.6652 9.82177C49.0031 10.0271 49.2189 10.384 49.3128 10.8924C49.4066 11.4009 49.4535 12.2271 49.4535 13.3711C49.4535 14.5151 49.4066 15.3413 49.3128 15.8498C49.2189 16.3582 49.0031 16.7151 48.6652 16.9204C48.3368 17.1258 47.7924 17.2284 47.0323 17.2284ZM47.0323 16.3338C47.5015 16.3338 47.83 16.2653 48.0177 16.1284C48.2148 15.9916 48.3368 15.7373 48.3837 15.3658C48.4306 14.9942 48.4541 14.3293 48.4541 13.3711C48.4541 12.4129 48.4306 11.748 48.3837 11.3764C48.3368 11.0049 48.2148 10.7507 48.0177 10.6138C47.83 10.4769 47.5015 10.4084 47.0323 10.4084C46.5537 10.4084 46.2205 10.4769 46.0328 10.6138C45.8451 10.7507 45.7231 11.0098 45.6668 11.3911C45.6199 11.7627 45.5964 12.4227 45.5964 13.3711C45.5964 14.3196 45.6199 14.9844 45.6668 15.3658C45.7231 15.7373 45.8451 15.9916 46.0328 16.1284C46.2205 16.2653 46.5537 16.3338 47.0323 16.3338Z" fill="white"/>
<path d="M92.0208 17.1111V14.7204H88.4312V13.8551L90.9932 7.02045H92.1053L89.5433 13.7524H92.0349L92.232 10.0124H93.0766V13.7524H94.0902V14.7204H93.0766V17.1111H92.0208ZM99.7935 17.1111V13.2244L97.3019 7.02045H98.414L100.3 11.9191H100.385L102.271 7.02045H103.341L100.835 13.2244V17.1111H99.7935ZM105.842 17.2284C105.082 17.2284 104.533 17.1258 104.195 16.9204C103.866 16.7151 103.651 16.3582 103.547 15.8498C103.454 15.3413 103.407 14.5151 103.407 13.3711C103.407 12.2271 103.454 11.4009 103.547 10.8924C103.651 10.384 103.866 10.0271 104.195 9.82178C104.533 9.61645 105.082 9.51378 105.842 9.51378C106.602 9.51378 107.146 9.61645 107.475 9.82178C107.813 10.0271 108.029 10.384 108.122 10.8924C108.216 11.4009 108.263 12.2271 108.263 13.3711C108.263 14.5151 108.216 15.3413 108.122 15.8498C108.029 16.3582 107.813 16.7151 107.475 16.9204C107.146 17.1258 106.602 17.2284 105.842 17.2284ZM105.842 16.3338C106.311 16.3338 106.64 16.2653 106.827 16.1284C107.024 15.9916 107.146 15.7373 107.193 15.3658C107.24 14.9942 107.264 14.3293 107.264 13.3711C107.264 12.4129 107.24 11.748 107.193 11.3764C107.146 11.0049 107.024 10.7507 106.827 10.6138C106.64 10.4769 106.311 10.4084 105.842 10.4084C105.363 10.4084 105.03 10.4769 104.842 10.6138C104.655 10.7507 104.533 11.0098 104.476 11.3911C104.43 11.7627 104.406 12.4227 104.406 13.3711C104.406 14.3196 104.43 14.9844 104.476 15.3658C104.533 15.7373 104.655 15.9916 104.842 16.1284C105.03 16.2653 105.363 16.3338 105.842 16.3338ZM113.478 16.0698H113.408C113.295 16.4413 113.098 16.7298 112.816 16.9351C112.544 17.1307 112.15 17.2284 111.634 17.2284C111.108 17.2284 110.71 17.1307 110.437 16.9351C110.175 16.7396 109.996 16.4462 109.903 16.0551C109.818 15.6542 109.776 15.0871 109.776 14.3538V9.63111H110.775V14.0018C110.775 14.7156 110.803 15.224 110.86 15.5271C110.925 15.8302 111.043 16.0356 111.212 16.1431C111.381 16.2409 111.657 16.2898 112.042 16.2898C112.465 16.2898 112.774 16.1871 112.971 15.9818C113.168 15.7667 113.29 15.4782 113.337 15.1164C113.394 14.7449 113.422 14.212 113.422 13.5178V9.63111H114.421V17.1111H113.534L113.478 16.0698Z" fill="white"/>
<path d="M5.63407 4.95142C5.63407 4.95142 3.27564 5.86493 1.88287 9.30063L9.56632 7.78733L5.63407 4.95142Z" fill="white"/>
<path d="M1.76683 9.79057C1.76683 9.79057 0.726898 12.178 2.08585 15.6282L6.47108 8.8819L1.76683 9.79057Z" fill="white"/>
<path d="M2.37967 15.9682C2.37967 15.9682 3.25645 18.4254 6.55401 19.8765L5.10221 11.8698L2.37967 15.9682Z" fill="white"/>
<path d="M7.02422 19.9968C7.02422 19.9968 9.31565 21.0795 12.6271 19.6643L6.15207 15.0968L7.02422 19.9968Z" fill="white"/>
<path d="M13.0801 19.4633C13.0801 19.4633 15.4392 18.5498 16.8313 15.1127L9.14719 16.6253L13.0801 19.4633Z" fill="white"/>
<path d="M16.6277 8.78584L12.2437 15.5321L16.948 14.6228C16.948 14.6235 17.9867 12.236 16.6277 8.78584Z" fill="white"/>
<path d="M16.3339 8.44586C16.3339 8.44586 15.4572 5.98863 12.1589 4.53819L13.6107 12.5435L16.3339 8.44586Z" fill="white"/>
<path d="M11.6887 4.41729C11.6887 4.41729 9.39856 3.33379 6.08643 4.75036L12.5621 9.31792L11.6887 4.41729Z" fill="white"/>
<path d="M9.38529 2.44444C4.20219 2.44444 0 6.82267 0 12.2222C0 17.621 4.20153 22 9.38529 22C14.567 22 18.7692 17.6204 18.7692 12.2222C18.7699 6.82267 14.5677 2.44444 9.38529 2.44444ZM9.38529 21.2441C4.61073 21.2441 0.725567 17.1968 0.725567 12.2222C0.725567 7.24764 4.61073 3.20041 9.38529 3.20041C14.1585 3.20041 18.0437 7.24764 18.0437 12.2222C18.0437 17.1968 14.1585 21.2441 9.38529 21.2441Z" fill="white"/>
</svg>
